HIERARCHY
ROOT hip
{
	OFFSET 0.000000 0.000000 0.000000 
	CHANNELS 6 Xposition Yposition Zposition Xrotation Zrotation Yrotation
	JOINT abdomen
	{
		OFFSET 0.000000 3.402643 0.000000 
		CHANNELS 3 Xrotation Zrotation Yrotation
		JOINT chest
		{
			OFFSET 0.000000 8.438565 -0.680529 
			CHANNELS 3 Xrotation Zrotation Yrotation
			JOINT neck
			{
				OFFSET 0.000000 10.207942 -0.272212 
				CHANNELS 3 Xrotation Zrotation Yrotation
				JOINT head
				{
					OFFSET 0.000000 3.130431 0.000000 
					CHANNELS 3 Xrotation Zrotation Yrotation
					End Site
					{
						OFFSET 0.000000 3.130435 0.000000 
					}
				}
			}
			JOINT lCollar
			{
				OFFSET 3.470700 6.669187 -0.816635 
				CHANNELS 3 Yrotation Zrotation Xrotation
				JOINT lShldr
				{
					OFFSET 3.198488 0.000000 0.000000 
					CHANNELS 3 Zrotation Yrotation Xrotation
					JOINT lForeArm
					{
						OFFSET 10.139888 0.000000 0.000000 
						CHANNELS 3 Yrotation Zrotation Xrotation
						JOINT lHand
						{
							OFFSET 8.370511 0.000000 0.000000 
							CHANNELS 3 Zrotation Yrotation Xrotation
							End Site
							{
								OFFSET 4.083176 0.000000 0.000000 
							}
						}
					}
				}
			}
			JOINT rCollar
			{
				OFFSET -3.470700 6.669187 -0.816635 
				CHANNELS 3 Yrotation Zrotation Xrotation
				JOINT rShldr
				{
					OFFSET -3.198488 0.000000 0.000000 
					CHANNELS 3 Zrotation Yrotation Xrotation
					JOINT rForeArm
					{
						OFFSET -10.139888 0.000000 0.000000 
						CHANNELS 3 Yrotation Zrotation Xrotation
						JOINT rHand
						{
							OFFSET -8.370511 0.000000 0.000000 
							CHANNELS 3 Zrotation Yrotation Xrotation
							End Site
							{
								OFFSET -4.083176 0.000000 0.000000 
							}
						}
					}
				}
			}
		}
	}
	JOINT lThigh
	{
		OFFSET 5.308129 -1.633274 1.361059 
		CHANNELS 3 Xrotation Zrotation Yrotation
		JOINT lShin
		{
			OFFSET -2.041588 -20.007561 0.000000 
			CHANNELS 3 Xrotation Zrotation Yrotation
			JOINT lFoot
			{
				OFFSET 0.000000 -19.190928 -1.224953 
				CHANNELS 3 Xrotation Yrotation Zrotation
				End Site
				{
					OFFSET 0.000000 -2.449906 4.627600 
				}
			}
		}
	}
	JOINT rThigh
	{
		OFFSET -5.308129 -1.633274 1.361059 
		CHANNELS 3 Xrotation Zrotation Yrotation
		JOINT rShin
		{
			OFFSET 2.041588 -20.007561 0.000000 
			CHANNELS 3 Xrotation Zrotation Yrotation
			JOINT rFoot
			{
				OFFSET 0.000000 -19.190928 -1.224953 
				CHANNELS 3 Xrotation Yrotation Zrotation
				End Site
				{
					OFFSET 0.000000 -2.449906 4.627600 
				}
			}
		}
	}
}
MOTION
Frames: 14
Frame Time: 0.033333
-6.069419 52.101410 22.767883 147.236343 -165.859375 -4.455510 28.376570 -9.227049 -0.829904 -2.500000 4.130859 2.851563 39.322914 4.146436 3.254654 -79.091797 -6.435546 -23.907343 2.000000 -2.000000 0.000000 -66.064453 37.265625 -14.535104 -75.258415 0.844531 2.925406 33.338051 40.981766 13.283892 -2.000000 2.000000 0.000000 20.849607 12.646484 -73.007813 98.964890 0.085313 2.756741 3.432715 -4.196688 -28.333742 -40.873829 -10.819860 13.793998 13.091196 2.526063 0.456584 2.568728 12.196921 -14.106133 -53.561230 -11.991575 -7.353579 29.148996 -7.177398 -1.773007 -9.908325 -5.379983 8.658390 
-5.357864 51.743191 23.026377 147.861343 -165.156250 -0.227111 28.944162 -9.493878 -1.204447 -2.519530 3.789063 2.617833 39.322914 4.146436 3.254654 -78.300781 -5.556640 -25.458984 2.000000 -2.000000 0.000000 -70.351563 36.103516 -16.562498 -73.856155 0.677963 2.759436 29.628504 43.454880 13.332924 -2.000000 2.000000 0.000000 21.601561 8.330078 -71.611328 99.842934 0.092706 2.796325 5.024906 -4.146621 -28.961781 -40.899185 -12.713695 12.242899 14.805875 2.066490 0.328509 3.034350 10.989989 -13.499642 -54.202625 -15.700332 -8.874476 33.293682 -6.395350 -1.554687 -8.517158 -6.093978 8.416476 
-4.854365 51.362583 23.085167 149.277344 -164.765625 2.663449 29.109720 -9.336446 -1.122883 -2.343750 3.769531 2.627595 39.322914 4.146436 3.254654 -77.392578 -5.341796 -27.353518 2.000000 -2.000000 0.000000 -75.283203 34.414063 -17.001955 -71.745949 0.903929 2.775092 23.361368 47.292442 12.986042 -2.000000 2.000000 0.000000 22.529295 5.341796 -70.927734 100.367462 0.111531 2.484452 6.344598 -4.214270 -29.234976 -40.684273 -14.129358 10.342119 16.880018 2.108696 0.593879 2.517419 10.528495 -13.583142 -53.177059 -19.273714 -11.757890 35.943226 -5.507236 -1.216118 -10.867329 -5.706560 6.244051 
-4.589252 51.056610 23.014477 151.308609 -164.804688 4.440799 29.038248 -9.124546 -0.435244 -2.158202 3.935547 2.666686 39.322914 4.146436 3.254654 -76.025391 -5.878906 -29.805689 2.000000 -2.000000 0.000000 -79.052734 33.496090 -16.244612 -69.111122 0.957119 2.683840 16.019361 51.510277 11.922482 -2.000000 2.000000 0.000000 23.437500 4.013672 -73.016891 100.718582 0.110356 2.503943 6.456783 -4.771780 -28.300455 -39.615273 -15.086652 8.266431 19.665161 2.105652 0.156683 1.667552 11.114655 -14.136747 -51.282856 -21.655788 -14.084163 38.132626 -4.775091 -1.253265 -12.434051 -5.274622 5.018930 
-4.365211 50.817799 22.927011 153.691422 -164.814438 6.100957 28.399179 -8.627309 0.466526 -1.787109 4.082031 2.901086 39.322914 4.146436 3.254654 -74.326172 -6.875000 -32.724613 2.000000 -2.000000 0.000000 -82.402344 33.027344 -14.267578 -66.641182 0.828631 2.662421 6.911668 57.576283 11.257612 -2.000000 2.000000 0.000000 24.648438 4.609375 -76.835152 100.718582 0.110356 2.503943 5.445240 -5.164957 -26.836325 -38.507355 -16.023643 6.092727 21.814886 2.265398 0.062774 2.383692 10.677398 -15.122104 -48.667606 -23.433811 -15.790528 39.272324 -4.491741 -1.142569 -13.542292 -5.739401 4.599806 
-4.112477 50.735706 22.931383 156.083984 -164.833984 7.819712 27.571272 -7.999709 1.606974 -1.249999 4.404297 2.998797 39.322914 4.146436 3.254654 -71.982422 -8.417968 -35.841274 2.000000 -2.000000 0.000000 -84.902344 32.919922 -10.869140 -62.961708 1.230984 2.520747 -8.736032 64.671555 5.812672 -2.000000 2.000000 0.000000 25.410156 5.517578 -80.643593 100.894150 0.119516 2.514276 4.582016 -5.198691 -25.266909 -37.254478 -16.709087 4.203406 24.181894 2.205436 -0.042476 4.540783 9.801411 -16.022606 -45.650856 -24.840361 -17.311474 39.705730 -4.199068 -1.373364 -14.049026 -6.079098 4.730755 
-3.783010 50.832726 23.099138 -21.367186 -15.292968 -170.637344 26.741812 -7.364742 2.728104 -0.859376 4.892578 3.115235 39.322914 4.146436 3.254654 -68.896484 -9.765624 -40.292973 2.000000 -2.000000 0.000000 -86.865234 33.310547 -7.729012 -59.447048 1.471156 2.447557 -28.720310 70.493744 -4.847626 -2.000000 2.000000 0.000000 25.556641 6.738281 -83.017578 100.718582 0.110356 2.503943 3.670056 -5.301322 -23.553055 -35.634567 -17.275429 2.391022 25.381525 1.956895 -0.000475 12.706466 8.069471 -17.340326 -41.226086 -25.648876 -19.646452 38.458839 -4.081365 -0.841062 -13.910605 -6.605913 4.513509 
-3.362197 51.026752 23.361879 -18.623049 -15.224609 -169.394531 25.559639 -6.722309 3.829860 -0.302736 5.205079 3.232422 39.322914 4.146436 3.254654 -64.492188 -10.654297 -46.093750 2.000000 -2.000000 0.000000 -88.535156 34.013672 -5.869141 -56.635342 1.653428 2.387645 -48.572189 73.083984 -18.638844 -2.000000 2.000000 0.000000 24.658201 7.851562 -83.662109 100.543427 0.287581 2.485276 3.937192 -4.247934 -21.848873 -33.538696 -17.428698 0.675838 25.712509 1.971716 -0.024436 19.034399 5.493023 -17.731367 -36.489868 -25.911451 -21.781694 36.607040 -4.267106 -0.748395 -12.892542 -7.012528 4.940170 
-2.835095 51.317810 23.264462 -15.869141 -15.253906 -168.381470 24.626362 -6.118679 4.309468 0.087893 5.693360 3.555656 39.322914 4.146436 3.254654 -60.205078 -10.830077 -51.349491 2.000000 -2.000000 0.000000 -90.361328 35.390625 -7.377156 -55.054768 1.698058 2.316485 -52.460197 72.495018 -21.533010 -2.000000 2.000000 0.000000 23.496096 9.746094 -82.859673 100.367462 0.111531 2.484452 4.451348 -2.561191 -19.816959 -30.349276 -17.128290 -0.513066 23.947601 1.786394 -0.187177 23.715361 3.605081 -17.928759 -31.406187 -25.410036 -23.973713 33.741806 -4.139808 -0.803002 -15.640218 -7.630012 4.294134 
-2.283543 51.646187 22.551910 -13.300781 -15.097657 -167.395126 23.565147 -5.954084 4.370848 0.458986 6.015625 3.663133 39.322914 4.146436 3.254654 -56.796875 -10.732421 -54.062504 2.000000 -2.000000 0.000000 -91.816406 36.923828 -11.230468 -54.529644 1.556304 2.237016 -43.916821 70.687393 -15.851781 -2.000000 2.000000 0.000000 22.763674 12.294922 -81.335815 99.849884 -0.063931 2.473883 5.209871 -1.012952 -17.966331 -26.506094 -16.695021 -1.281608 22.436958 1.991697 -0.027383 24.978182 2.289917 -17.408716 -26.590857 -24.655729 -25.625063 31.094273 -3.802934 -0.760395 -14.080125 -8.520668 4.756204 
-1.785631 51.937225 22.071003 -10.761719 -14.882812 -166.877502 22.559578 -5.690525 3.915973 0.839844 6.328125 3.594826 39.322914 4.146436 3.254654 -54.277340 -10.683593 -54.738140 2.000000 -2.000000 0.000000 -92.802734 37.871094 -14.923052 -54.000427 1.745623 2.294051 -36.459427 69.243736 -11.370253 -2.000000 2.000000 0.000000 22.851563 14.863280 -79.755859 99.491585 0.093295 2.786580 5.984641 -0.256442 -15.909244 -21.659534 -15.351168 -1.554497 18.987055 1.871012 0.262374 24.702621 0.689537 -15.865501 -22.733608 -23.659225 -27.066170 29.653410 -3.749387 -0.744899 -8.475238 -9.373312 6.003747 
-1.204438 52.183498 21.378372 -8.359375 -14.619141 -166.506363 21.368881 -5.631346 3.561948 1.201173 6.474609 3.672976 39.322914 4.146436 3.254654 -52.109375 -10.625000 -54.650242 2.000000 -2.000000 0.000000 -92.451172 37.861328 -15.390624 -53.637501 1.895364 2.343695 -32.225254 69.853630 -9.640643 -2.000000 2.000000 0.000000 24.160158 16.699221 -76.501106 98.603783 0.076154 2.746407 6.562744 -1.120143 -13.863236 -17.752441 -13.836995 -0.165974 17.058165 2.099239 -0.142669 23.531109 -0.957938 -13.892919 -17.675272 -22.115610 -28.533215 25.249083 -3.153692 -0.745225 -12.013270 -9.751592 4.106728 
-0.629928 52.295444 20.650032 -6.162109 -13.994140 -166.408615 20.205147 -5.494556 2.860727 1.406251 6.796875 3.770687 39.322914 4.146436 3.254654 -50.166019 -10.869141 -53.916016 2.000000 -2.000000 0.000000 -92.050781 37.753910 -15.892457 -53.473717 1.763358 2.263638 -25.520721 70.624580 -5.688211 -2.000000 2.000000 0.000000 26.269531 18.115234 -72.285156 97.549957 -0.116449 2.695681 7.329874 -2.513152 -11.912771 -14.271533 -12.076645 1.580420 15.778527 2.060150 0.229621 21.744591 -2.430658 -10.463867 -13.789006 -19.674623 -29.818102 22.834126 -3.211962 -0.665960 -11.332515 -10.649426 3.894161 
-0.097326 52.377537 19.907959 -3.974610 -12.998046 -166.845703 18.887930 -5.522141 2.097908 1.787109 7.109375 3.896485 39.322914 4.146436 3.254654 -48.193363 -10.947264 -52.685547 2.000000 -2.000000 0.000000 -90.507813 36.777340 -15.224609 -53.649052 1.764532 2.283128 -20.084253 70.824036 -2.908598 -2.000000 2.000000 0.000000 28.896484 18.339846 -68.493019 97.023262 -0.124431 2.665857 7.565644 -3.345304 -10.442995 -11.054244 -9.510723 4.211283 14.717587 1.832276 0.294532 18.958097 -3.754927 -7.776532 -11.259695 -17.629324 -29.903313 21.204098 -3.124020 -0.551149 -6.443323 -11.348675 4.928013 
